<svg width="95" height="122" viewBox="0 0 95 122" fill="none" xmlns="http://www.w3.org/2000/svg">
<path d="M94.6555 56.197L94.4767 119.836C94.4767 120.038 94.4541 120.22 94.4088 120.382C94.3945 120.455 94.3735 120.523 94.3459 120.587C94.293 120.726 94.2245 120.845 94.1407 120.944C94.1219 120.966 94.1026 120.989 94.0827 121.011C94.075 121.025 94.0645 121.034 94.0513 121.039C94.0303 121.064 94.0066 121.085 93.9801 121.1C93.9492 121.128 93.9177 121.15 93.8857 121.168C93.5017 121.409 92.9604 121.383 92.3661 121.039L2.09568 68.9483C0.93363 68.2782 -0.00494639 66.6518 1.96158e-05 65.3166L0.178796 1.67606C0.182107 0.971242 0.450273 0.483164 0.875694 0.286278C0.912112 0.273042 0.946873 0.256496 0.98329 0.246569C1.01088 0.236642 1.03902 0.229474 1.06771 0.225062C1.11296 0.211826 1.15765 0.202451 1.2018 0.196936C1.24704 0.192524 1.29174 0.189766 1.33588 0.188663C1.62225 0.183699 1.94835 0.278005 2.29266 0.474891L92.5631 52.5687C93.7252 53.2387 94.6588 54.8602 94.6555 56.197Z" fill="url(#paint0_linear_56_3562)" style="mix-blend-mode:luminosity"/>
<path d="M94.9814 56.0084L94.7977 119.649C94.7977 120.309 94.561 120.779 94.1852 120.997L93.8641 121.186C93.8718 121.182 93.879 121.176 93.8856 121.168C93.9176 121.15 93.949 121.128 93.9799 121.1C94.0064 121.085 94.0302 121.064 94.0511 121.039C94.0644 121.034 94.0749 121.025 94.0826 121.011C94.1024 120.989 94.1217 120.967 94.1405 120.944C94.2244 120.845 94.2928 120.726 94.3458 120.587C94.3734 120.523 94.3943 120.455 94.4087 120.382C94.4539 120.22 94.4765 120.038 94.4765 119.836L94.6553 56.197C94.6586 54.8602 93.725 53.2388 92.563 52.5687L2.29251 0.474911C1.9482 0.278025 1.6221 0.183719 1.33573 0.188682C1.29159 0.189785 1.24689 0.192543 1.20165 0.196955C1.15751 0.20247 1.11281 0.211845 1.06756 0.225081C1.03666 0.227287 1.00852 0.234455 0.983142 0.246588C0.946724 0.256515 0.911963 0.273061 0.875546 0.286297C0.849061 0.300636 0.822023 0.314424 0.794434 0.32766L1.11722 0.139046C1.50126 -0.0793483 2.02931 -0.0479128 2.6153 0.286297L92.8841 52.3817C94.0462 53.0518 94.9814 54.6732 94.9814 56.0084Z" fill="white"/>
<path d="M11.9218 23.6743L11.9152 26.4539L9.45206 25.0327C8.93229 24.7332 8.51349 24.0069 8.51514 23.4129L8.52011 21.7121L11.9218 23.6743Z" fill="url(#paint1_linear_56_3562)"/>
<path d="M11.9334 19.8326L11.9234 23.1185L8.52173 21.1546L8.53166 17.8704L11.9334 19.8326Z" fill="url(#paint2_linear_56_3562)"/>
<path d="M11.9451 15.9875L11.9352 19.275L8.53345 17.3128L8.54172 14.0253L11.9451 15.9875Z" fill="url(#paint3_linear_56_3562)"/>
<path d="M19.8078 28.2259L19.8012 31.0055L12.4001 26.7352L12.4068 23.9556L19.8078 28.2259Z" fill="url(#paint4_linear_56_3562)"/>
<path d="M11.9532 12.6537L11.9449 15.43L8.54321 13.4677L8.54818 11.7702C8.54983 11.1762 8.97029 10.933 9.49007 11.2325L11.9532 12.6537Z" fill="url(#paint5_linear_56_3562)"/>
<path d="M19.831 20.5391L19.8095 27.6684L12.4084 23.3981L12.43 16.2672L19.831 20.5391Z" fill="url(#paint6_linear_56_3562)"/>
<path d="M23.693 30.4677L23.688 32.1686C23.6863 32.7625 23.2659 33.0041 22.7461 32.7046L20.283 31.2834L20.2912 28.5038L23.693 30.4677Z" fill="url(#paint7_linear_56_3562)"/>
<path d="M23.7046 26.626L23.6947 29.9102L20.293 27.9463L20.3012 24.6621L23.7046 26.626Z" fill="url(#paint8_linear_56_3562)"/>
<path d="M19.8393 17.2053L19.8326 19.9815L12.4316 15.7113L12.4383 12.935L19.8393 17.2053Z" fill="url(#paint9_linear_56_3562)"/>
<path d="M23.7144 22.7809L23.7061 26.0684L20.3027 24.1045L20.3127 20.817L23.7144 22.7809Z" fill="url(#paint10_linear_56_3562)"/>
<path d="M22.7859 18.9044C23.304 19.2039 23.7228 19.9319 23.7211 20.5258L23.7162 22.2234L20.3145 20.2595L20.3227 17.4832L22.7859 18.9044Z" fill="url(#paint11_linear_56_3562)"/>
<g style="mix-blend-mode:hard-light" opacity="0.7">
<path d="M9.78793 62.4444C10.0395 62.59 10.2724 62.7858 10.4865 63.0317L10.3408 63.3345C10.258 63.2408 10.1698 63.1503 10.076 63.0632C9.98326 62.9749 9.88504 62.901 9.78131 62.8415C9.54956 62.708 9.36748 62.697 9.23505 62.8084C9.10152 62.9209 9.0342 63.1437 9.0331 63.4768C9.03199 63.8231 9.0949 64.1232 9.22181 64.3769C9.35092 64.6283 9.53522 64.8236 9.77469 64.9625C9.88173 65.0243 9.98381 65.0712 10.0809 65.1032C10.178 65.1363 10.2801 65.1644 10.3872 65.1876L10.3855 65.5863C10.1913 65.5576 9.97112 65.4727 9.72503 65.3315C9.36527 65.1241 9.08828 64.8379 8.89405 64.4728C8.70203 64.1099 8.60657 63.6952 8.60768 63.2286C8.60878 62.933 8.65623 62.7008 8.75003 62.5321C8.84494 62.3666 8.98178 62.2756 9.16056 62.2591C9.33823 62.2436 9.54736 62.3054 9.78793 62.4444Z" fill="black"/>
<path fill-rule="evenodd" clip-rule="evenodd" d="M12.4119 63.9881L13.3273 67.3699L12.9002 67.1233L12.6536 66.1935L11.7117 65.6492L11.4667 66.2961L11.0413 66.0512L11.9749 63.7366L12.4119 63.9881ZM11.8309 65.3166L12.5493 65.7319L12.3208 64.8252C12.3043 64.7657 12.2806 64.6708 12.2497 64.5407C12.2221 64.4127 12.2022 64.3195 12.1901 64.261C12.1592 64.4033 12.1139 64.5522 12.0543 64.7078L11.8309 65.3166Z" fill="black"/>
<path fill-rule="evenodd" clip-rule="evenodd" d="M15.2639 67.2292L15.9558 68.8871L15.4973 68.6223L14.9097 67.1498L14.5091 66.9198L14.5058 68.0499L14.1035 67.8182L14.1118 64.9824L14.8087 65.3845C15.1287 65.5698 15.3643 65.7749 15.5155 65.9999C15.6689 66.2261 15.7456 66.477 15.7456 66.7527C15.7445 67.1068 15.5839 67.2656 15.2639 67.2292ZM14.7938 66.6965C14.9814 66.8046 15.1177 66.8437 15.2027 66.814C15.2854 66.7798 15.3274 66.6844 15.3285 66.5277C15.3285 66.3678 15.2832 66.2261 15.1927 66.1025C15.1011 65.9812 14.9643 65.8681 14.7822 65.7633L14.514 65.6078L14.5107 66.5327L14.7938 66.6965Z" fill="black"/>
<path fill-rule="evenodd" clip-rule="evenodd" d="M18.4521 67.8514C18.6706 68.222 18.7793 68.6273 18.7782 69.0674C18.776 69.5351 18.6618 69.8279 18.4356 69.946C18.2088 70.0651 17.881 69.9972 17.4556 69.7524L16.7637 69.3536L16.772 66.5178L17.5367 66.9596C17.9296 67.1857 18.2347 67.483 18.4521 67.8514ZM17.4556 69.3619C18.0515 69.7072 18.3506 69.5323 18.3528 68.8374C18.355 68.1591 18.0791 67.66 17.5251 67.3401L17.1759 67.1383L17.1709 69.1965L17.4556 69.3619Z" fill="black"/>
<path d="M21.7098 69.3668L21.7015 72.2026L21.2959 71.9694L21.3009 70.6904L20.162 70.0336L20.1587 71.3109L19.7532 71.0776L19.7614 68.2418L20.1654 68.4767L20.162 69.6365L21.3009 70.2934L21.3042 69.1335L21.7098 69.3668Z" fill="black"/>
<path d="M19.7068 63.8276L19.7035 65.2802L8.41577 58.7664L8.41908 57.3138L19.7068 63.8276Z" fill="black"/>
<path fill-rule="evenodd" clip-rule="evenodd" d="M24.7009 71.4317C24.8996 71.8012 24.9983 72.217 24.9972 72.6792C24.9961 73.1413 24.8951 73.443 24.6943 73.5842C24.4923 73.7243 24.2065 73.6873 23.8368 73.4733C23.466 73.2594 23.1802 72.9676 22.9794 72.5981C22.7796 72.2275 22.6803 71.8084 22.6814 71.3407C22.6831 70.8708 22.7873 70.573 22.9876 70.4357C23.1913 70.3033 23.4776 70.3414 23.8501 70.5564C24.2165 70.7682 24.5001 71.06 24.7009 71.4317ZM24.3831 73.1259C24.5067 73.0167 24.5685 72.7856 24.5685 72.4327C24.5696 72.0852 24.5095 71.7863 24.3881 71.5359C24.2689 71.2877 24.0895 71.0947 23.8501 70.9568C23.6073 70.8157 23.4241 70.7997 23.3005 70.9089C23.1758 71.0169 23.1135 71.2447 23.1135 71.5922C23.1112 71.9429 23.1714 72.2435 23.2939 72.4939C23.4164 72.7443 23.5979 72.9389 23.8385 73.0779C24.0802 73.2169 24.2617 73.2329 24.3831 73.1259Z" fill="black"/>
<path d="M26.3844 72.0654L26.3778 74.5041L27.4223 75.1064V75.5034L25.9739 74.6679L25.9822 71.8321L26.3844 72.0654Z" fill="black"/>
<path fill-rule="evenodd" clip-rule="evenodd" d="M29.9865 74.5074C30.205 74.878 30.3132 75.2834 30.311 75.7235C30.3099 76.1912 30.1957 76.484 29.9683 76.602C29.7432 76.7212 29.4138 76.6533 28.9884 76.4068L28.2981 76.0097L28.3064 73.1739L29.0711 73.6156C29.4618 73.8407 29.7669 74.1379 29.9865 74.5074ZM28.99 76.018C29.5859 76.3621 29.8845 76.1873 29.8856 75.4935C29.8878 74.8152 29.6119 74.3155 29.0579 73.9945L28.7103 73.7943L28.7037 75.8525L28.99 76.018Z" fill="black"/>
<path d="M32.6929 75.7053L32.6913 76.0991L31.6981 75.5249L31.6964 76.2959L32.6267 76.832L32.6251 77.2192L31.6948 76.6831L31.6931 77.5732L32.6863 78.1473L32.6847 78.5411L31.2859 77.7337L31.2942 74.8979L32.6929 75.7053Z" fill="black"/>
<path fill-rule="evenodd" clip-rule="evenodd" d="M34.8267 78.5179L35.5186 80.1757L35.0601 79.911L34.4724 78.4385L34.0751 78.2102L34.0718 79.3402L33.6663 79.1069L33.6745 76.2711L34.3747 76.6748C34.6915 76.8579 34.9271 77.0631 35.0816 77.2903C35.2328 77.5153 35.3084 77.7657 35.3084 78.0414C35.3073 78.3955 35.1467 78.5543 34.8267 78.5179ZM34.3565 77.9852C34.5452 78.0933 34.681 78.1324 34.7637 78.1027C34.8498 78.0707 34.8934 77.9758 34.8945 77.8181C34.8945 77.6581 34.8487 77.5164 34.7571 77.3929C34.6655 77.2715 34.5281 77.1579 34.3449 77.052L34.0784 76.8982L34.0768 77.823L34.3565 77.9852Z" fill="black"/>
<path d="M19.7532 47.582L19.7498 49.0346L8.46045 42.5208L8.46542 41.0682L19.7532 47.582Z" fill="black"/>
<path d="M12.4498 35.3171L12.4349 40.6198L11.9201 40.3237L11.9317 36.5448C11.9328 36.2304 11.9421 35.937 11.9598 35.6646C11.9157 35.691 11.866 35.7159 11.8108 35.739C11.7556 35.7633 11.5046 35.8548 11.0576 36.0137L10.7795 35.4396L12.0078 35.0607L12.4498 35.3171Z" fill="black"/>
<path fill-rule="evenodd" clip-rule="evenodd" d="M41.8801 80.9931L42.7971 84.3765L42.3668 84.1267L42.1234 83.1985L41.1782 82.6542L40.9365 83.3011L40.5078 83.0546L41.4414 80.7399L41.8801 80.9931ZM41.2991 82.3216L42.0175 82.7369L41.789 81.8302C41.7725 81.7707 41.7488 81.6764 41.7179 81.5473C41.6892 81.4183 41.6688 81.324 41.6566 81.2644C41.6257 81.4078 41.581 81.5573 41.5225 81.7128L41.2991 82.3216Z" fill="black"/>
<path fill-rule="evenodd" clip-rule="evenodd" d="M17.7139 38.972C17.9732 39.5885 18.1018 40.3402 18.0996 41.227C18.0963 42.1414 17.9688 42.7525 17.7172 43.0602C17.4645 43.368 17.0782 43.3718 16.5584 43.0718C16.063 42.7872 15.6861 42.3378 15.4279 41.7234C15.1696 41.1123 15.0422 40.359 15.0455 39.4633C15.0488 38.5401 15.1751 37.9263 15.4245 37.6219C15.6773 37.3197 16.0607 37.3163 16.575 37.6119C17.076 37.902 17.4556 38.3554 17.7139 38.972ZM17.3216 42.458C17.4794 42.1911 17.5599 41.6771 17.5632 40.916C17.5643 40.1527 17.4865 39.5488 17.3298 39.1043C17.1753 38.6609 16.9232 38.3383 16.5733 38.1364C16.2279 37.9368 15.9758 37.9666 15.8169 38.2258C15.6579 38.4817 15.5779 38.9968 15.5768 39.7711C15.5735 40.5421 15.6508 41.1493 15.8086 41.5927C15.9642 42.0339 16.2147 42.3543 16.5601 42.554C16.9099 42.7569 17.1638 42.7249 17.3216 42.458Z" fill="black"/>
<path fill-rule="evenodd" clip-rule="evenodd" d="M22.2545 41.5927C22.5127 42.2081 22.6402 42.9587 22.6369 43.8444C22.6347 44.7599 22.5072 45.3715 22.2545 45.6793C22.0018 45.987 21.6166 45.9914 21.0991 45.6925C20.6008 45.4046 20.2234 44.9579 19.9652 44.3424C19.7091 43.7314 19.5817 42.978 19.5828 42.0824C19.5861 41.1592 19.7135 40.5454 19.9652 40.2409C20.2179 39.9398 20.6014 39.9365 21.1156 40.231C21.6139 40.5205 21.9962 40.9772 22.2545 41.5927ZM21.8622 45.0787C22.02 44.8118 22.0994 44.2972 22.1005 43.535C22.1027 42.7729 22.0266 42.1695 21.8721 41.725C21.7154 41.2805 21.4627 40.9579 21.114 40.7571C20.7685 40.5575 20.5158 40.5867 20.3558 40.8448C20.1969 41.1007 20.1163 41.6153 20.1141 42.3885C20.1119 43.1606 20.1892 43.7678 20.3459 44.2101C20.5048 44.6535 20.7564 44.975 21.1007 45.1747C21.4494 45.3765 21.7033 45.3445 21.8622 45.0787Z" fill="black"/>
<path d="M28.5878 44.6287L28.5729 49.933L28.0614 49.6385L28.0714 45.858C28.0725 45.5436 28.0818 45.2502 28.0995 44.9778C28.0565 45.0054 28.0074 45.0307 27.9522 45.0539C27.897 45.0782 27.6459 45.1697 27.199 45.3285L26.9209 44.7544L28.1475 44.3755L28.5878 44.6287Z" fill="black"/>
<path d="M32.6349 46.8887C33.0697 47.1402 33.4096 47.4634 33.6546 47.8583C33.8996 48.2564 34.0215 48.6706 34.0204 49.1008C34.0204 49.4383 33.9376 49.7245 33.7721 49.9595C33.6066 50.1922 33.2981 50.4299 32.8468 50.6726L31.8337 51.2268V51.2566L34.2075 52.6265L34.2058 53.1841L31.1699 51.432L31.1716 50.9141L32.3899 50.2093C32.7629 49.9931 33.0084 49.8271 33.1265 49.7113C33.2468 49.5977 33.3357 49.4697 33.393 49.3275C33.4537 49.1874 33.4841 49.0175 33.4841 48.8179C33.4852 48.5344 33.4118 48.2675 33.2639 48.0171C33.1138 47.7634 32.9064 47.5604 32.6415 47.4082C32.4484 47.2968 32.2669 47.2284 32.0969 47.2031C31.9236 47.1744 31.7316 47.1959 31.5209 47.2676L31.2428 46.6968C31.6698 46.5358 32.1339 46.5997 32.6349 46.8887Z" fill="black"/>
<path d="M37.1705 49.5062C37.6186 49.7654 37.9662 50.0842 38.2134 50.4625C38.4617 50.8397 38.5853 51.2351 38.5842 51.6488C38.5831 51.9863 38.4998 52.2152 38.3342 52.3354C38.1687 52.4567 37.9331 52.4655 37.6274 52.3619V52.39C37.9993 52.6569 38.2741 52.9514 38.4518 53.2735C38.6306 53.5934 38.7188 53.9298 38.7166 54.2827C38.7155 54.789 38.5621 55.0907 38.2564 55.1878C37.9508 55.2826 37.5171 55.1673 36.9553 54.842C36.7104 54.7019 36.4863 54.5524 36.2833 54.3936C36.0802 54.2326 35.8827 54.0439 35.6907 53.8277L35.6923 53.2536C35.8921 53.4831 36.1051 53.6926 36.3313 53.8823C36.5586 54.0721 36.7733 54.2254 36.9752 54.3423C37.772 54.8034 38.172 54.6738 38.1753 53.9535C38.1775 53.3115 37.7378 52.7363 36.856 52.2278L36.4025 51.9664L36.4041 51.4486L36.866 51.7149C37.2257 51.9223 37.5115 51.9951 37.7234 51.9333C37.9331 51.8705 38.0385 51.6774 38.0396 51.3543C38.0407 51.0951 37.964 50.8474 37.8095 50.6114C37.6561 50.3753 37.4464 50.1807 37.1805 50.0274C36.9774 49.9093 36.7871 49.831 36.6094 49.7924C36.4284 49.7505 36.2231 49.7483 35.9936 49.7858L35.7304 49.2266C35.9191 49.1626 36.1382 49.1532 36.3876 49.1984C36.6337 49.2459 36.8947 49.3484 37.1705 49.5062Z" fill="black"/>
<path fill-rule="evenodd" clip-rule="evenodd" d="M42.822 56.3856L43.5073 56.781L43.5057 57.3286L42.8204 56.9332L42.8171 58.1526L42.3155 57.8631L42.3188 56.6437L40.0725 55.3482L40.0742 54.8237L42.2758 52.4991L42.832 52.8201L42.822 56.3856ZM42.3254 54.3323C42.3265 53.986 42.3381 53.6016 42.3602 53.1792L42.337 53.1659C42.2344 53.3369 42.1389 53.4748 42.0506 53.5795L40.5989 55.1017L42.3205 56.096L42.3254 54.3323Z" fill="black"/>
<path fill-rule="evenodd" clip-rule="evenodd" d="M67.311 95.8389C67.4588 96.1577 67.5322 96.5107 67.5311 96.8978C67.5289 97.4493 67.3546 97.778 67.008 97.8839C66.6615 97.992 66.1909 97.8745 65.596 97.5315L63.6328 96.3998L63.6494 90.3708L65.2815 91.3122C66.0264 91.7424 66.5666 92.1759 66.9021 92.6127C67.2387 93.0528 67.4059 93.5364 67.4037 94.0636C67.4026 94.4254 67.3286 94.6797 67.1819 94.8264C67.0329 94.9703 66.8392 94.9984 66.5926 94.9025V94.9455C66.9269 95.2224 67.1664 95.5202 67.311 95.8389ZM66.1539 96.5967C66.2996 96.546 66.3724 96.3811 66.3724 96.102C66.3735 95.6012 66.0628 95.1716 65.4404 94.8131L64.7535 94.4161L64.7485 95.9862L65.4735 96.4048C65.7803 96.5813 66.0071 96.6452 66.1539 96.5967ZM64.7601 92.0617L64.7568 93.4002L65.4007 93.7725C65.7031 93.9467 65.9221 94.0195 66.0579 93.9908C66.1925 93.9633 66.2604 93.8248 66.2615 93.5756C66.2626 93.345 66.1903 93.1366 66.0446 92.9502C65.8957 92.766 65.6623 92.5823 65.3444 92.3992L64.7601 92.0617Z" fill="black"/>
<path fill-rule="evenodd" clip-rule="evenodd" d="M71.1447 94.6692L72.9855 101.797L71.787 101.105L71.4112 99.454L69.496 98.3488L69.112 99.5616L67.9119 98.8683L69.7841 93.8833L71.1447 94.6692ZM69.7791 97.4339L71.1481 98.2247C70.7993 96.7224 70.6029 95.8726 70.5588 95.6751C70.5157 95.4799 70.4843 95.3271 70.4644 95.2168C70.3849 95.5235 70.1565 96.2625 69.7791 97.4339Z" fill="black"/>
<path fill-rule="evenodd" clip-rule="evenodd" d="M54.5682 62.0539C54.8066 62.4808 54.9252 62.9413 54.9241 63.4354C54.9219 63.9858 54.7895 64.3437 54.5268 64.5092C54.2631 64.6724 53.9077 64.625 53.4608 64.3669C52.983 64.0912 52.605 63.6659 52.3269 63.0913C52.0477 62.521 51.9092 61.8669 51.9114 61.129C51.9136 60.0856 52.0918 59.4078 52.4461 59.0957C52.8003 58.7835 53.3223 58.8265 54.012 59.2247C54.2515 59.3626 54.4391 59.4938 54.5748 59.6185L54.5732 60.1363C54.4132 59.9819 54.2289 59.8451 54.0203 59.726C53.5237 59.4392 53.1441 59.3973 52.8814 59.6003C52.621 59.8065 52.477 60.2814 52.4494 61.0248L52.4858 61.0463C52.7198 60.765 53.0867 60.7689 53.5866 61.0579C54.0026 61.2983 54.3298 61.6304 54.5682 62.0539ZM54.1527 63.9301C54.3194 63.8099 54.4032 63.5452 54.4043 63.136C54.4054 62.7852 54.3293 62.4653 54.1759 62.1763C54.0225 61.8851 53.7935 61.6524 53.4889 61.4781C53.2991 61.3667 53.1248 61.311 52.9659 61.311C52.8091 61.3088 52.6833 61.3596 52.5884 61.4632C52.4935 61.5636 52.4461 61.6998 52.4461 61.8719C52.445 62.1201 52.4864 62.3765 52.5702 62.6413C52.6541 62.9038 52.7733 63.1437 52.9278 63.361C53.0823 63.5749 53.2583 63.7387 53.4558 63.8524C53.7549 64.0255 53.9872 64.0514 54.1527 63.9301Z" fill="black"/>
<path d="M78.324 98.8385L78.3058 104.866L76.8905 104.05L74.6194 98.1718L74.5863 98.1519C74.6293 98.9847 74.6503 99.5726 74.6492 99.9156L74.6409 102.751L73.6477 102.179L73.6659 96.15L75.0696 96.9607L77.3374 102.794L77.3623 102.809C77.3281 102.004 77.3115 101.439 77.3126 101.115L77.3209 98.2595L78.324 98.8385Z" fill="black"/>
<path d="M59.4614 62.4444L59.4597 62.9275L57.5561 66.6584L56.9734 66.3226L58.9019 62.6777L56.3857 61.225L56.3874 60.6708L59.4614 62.4444Z" fill="black"/>
<path d="M83.8512 102.028L82.0154 103.642L83.8495 108.066L82.5848 107.336L81.2192 104.002L80.7474 104.121L80.7408 106.272L79.6284 105.629L79.645 99.6013L80.7574 100.243L80.7507 103.003L81.1894 102.545L82.6163 101.315L83.8512 102.028Z" fill="black"/>
<path fill-rule="evenodd" clip-rule="evenodd" d="M63.7471 68.0681C63.9038 68.3846 63.9821 68.6924 63.9821 68.9913C63.981 69.4303 63.8458 69.7033 63.5766 69.8103C63.3095 69.9195 62.9431 69.8395 62.4774 69.5704C61.9852 69.2858 61.6067 68.9439 61.3419 68.5446C61.077 68.142 60.9446 67.7129 60.9446 67.2574C60.9468 66.6518 61.2707 66.3651 61.9163 66.397C61.626 66.0419 61.4186 65.7181 61.2939 65.4258C61.168 65.1335 61.1046 64.8523 61.1035 64.582C61.1051 64.1949 61.2326 63.9633 61.4776 63.8756C61.7259 63.7917 62.0586 63.8695 62.4758 64.1089C62.8951 64.3504 63.2273 64.6548 63.4723 65.0221C63.7195 65.3894 63.8425 65.7716 63.8414 66.1687C63.8403 66.429 63.7691 66.6265 63.6279 66.761C63.4844 66.8934 63.2587 66.959 62.9508 66.9579C63.325 67.3804 63.5904 67.7504 63.7471 68.0681ZM63.2008 69.2428C63.3752 69.1755 63.4623 68.9935 63.4623 68.6968C63.464 68.4619 63.3845 68.2087 63.219 67.9291C63.0557 67.6512 62.7699 67.3092 62.3615 66.9033C62.0459 66.8757 61.818 66.9149 61.6779 67.0208C61.5366 67.1289 61.4655 67.3131 61.4644 67.5734C61.4644 67.8624 61.5515 68.1392 61.7259 68.404C61.9014 68.6665 62.148 68.8904 62.4658 69.0757C62.7792 69.2555 63.0242 69.3112 63.2008 69.2428ZM61.8054 65.583C61.9301 65.8157 62.1585 66.1091 62.4907 66.4632C62.7941 66.4908 63.0088 66.4577 63.1346 66.3639C63.2582 66.2669 63.3205 66.108 63.3216 65.8874C63.3238 65.6426 63.2483 65.4043 63.0949 65.1727C62.9437 64.9411 62.734 64.7475 62.4658 64.592C62.2032 64.4409 61.9963 64.394 61.8451 64.4513C61.6961 64.5131 61.6211 64.6648 61.62 64.9063C61.62 65.1264 61.6829 65.3547 61.8054 65.583Z" fill="black"/>
<path d="M84.8261 102.452C86.296 103.317 87.4812 105.377 87.4763 107.073C87.4713 108.764 86.2778 109.451 84.8079 108.618L84.8261 102.452Z" fill="black"/>
<path fill-rule="evenodd" clip-rule="evenodd" d="M70.8485 70.0286C70.9732 70.4555 71.035 70.9099 71.0339 71.3919C71.0283 73.4667 70.3259 74.1004 68.9266 73.293C68.6838 73.1529 68.4907 73.0172 68.3472 72.886L68.3489 72.3681C68.5177 72.528 68.7092 72.6698 68.9233 72.7933C69.4287 73.0856 69.8106 73.1259 70.0688 72.9141C70.3292 72.7056 70.4716 72.2363 70.4959 71.5061L70.4595 71.4846C70.3414 71.617 70.1869 71.6809 69.996 71.6765C69.805 71.671 69.5887 71.5988 69.3471 71.4598C68.9399 71.2237 68.616 70.8967 68.3754 70.4787C68.1359 70.0595 68.0167 69.5979 68.0178 69.0938C68.02 68.5423 68.1558 68.185 68.425 68.0217C68.6943 67.8563 69.0486 67.9009 69.4878 68.1557C69.8012 68.3366 70.0749 68.5865 70.3088 68.9052C70.5439 69.2273 70.7238 69.6018 70.8485 70.0286ZM70.3651 71.0627C70.4578 70.9612 70.5041 70.8256 70.5041 70.6557C70.5053 70.402 70.4633 70.1428 70.3783 69.8781C70.2934 69.6145 70.1725 69.3751 70.0158 69.16C69.8624 68.9493 69.6859 68.7861 69.4861 68.6703C69.1848 68.496 68.9514 68.4728 68.7859 68.6008C68.6226 68.7276 68.5398 68.9896 68.5376 69.3867C68.5365 69.7341 68.611 70.0518 68.7611 70.3397C68.915 70.6292 69.1418 70.8592 69.453 71.0379C69.645 71.1482 69.8216 71.205 69.9827 71.2083C70.1449 71.2149 70.2707 71.162 70.3651 71.0627Z" fill="black"/>
<path fill-rule="evenodd" clip-rule="evenodd" d="M79.7558 74.7738C80.0129 75.3893 80.1404 76.1399 80.1381 77.0256C80.1348 77.9411 80.0068 78.5527 79.7541 78.8604C79.5025 79.1681 79.1168 79.172 78.597 78.872C78.1004 78.5874 77.7236 78.1379 77.4664 77.5236C77.2082 76.9114 77.0807 76.158 77.084 75.2635C77.0863 74.3403 77.2137 73.7265 77.4664 73.422C77.7158 73.1198 78.0977 73.116 78.6119 73.4105C79.114 73.7017 79.4953 74.1561 79.7558 74.7738ZM79.3618 78.2598C79.5196 77.9929 79.5991 77.4783 79.6002 76.7162C79.6035 75.954 79.5273 75.3507 79.3717 74.9061C79.2161 74.4616 78.9623 74.1385 78.6103 73.9366C78.2648 73.7359 78.0132 73.7656 77.8554 74.0259C77.6976 74.2818 77.6171 74.7964 77.6138 75.5696C77.6127 76.3417 77.6904 76.9489 77.8472 77.3912C78.0028 77.8335 78.2533 78.1545 78.5987 78.3541C78.9496 78.5571 79.204 78.5257 79.3618 78.2598Z" fill="black"/>
<path d="M60.3106 41.8888C60.6163 42.0653 60.9214 42.3267 61.226 42.673L61.0108 43.1694C60.8939 43.037 60.7758 42.9135 60.6566 42.7988C60.5396 42.6819 60.4237 42.5909 60.309 42.5258C60.0585 42.3813 59.8653 42.378 59.7296 42.5159C59.5917 42.6515 59.5221 42.9124 59.521 43.2984C59.5177 44.1003 59.7782 44.6524 60.3023 44.9546C60.522 45.0815 60.7885 45.1713 61.1019 45.2243L61.1002 45.8646C60.8431 45.8403 60.5556 45.7366 60.2378 45.5535C59.7842 45.2921 59.4333 44.9281 59.1949 44.4731C58.9532 44.0154 58.8335 43.4898 58.8357 42.8964C58.8368 42.5225 58.897 42.2285 59.0161 42.0145C59.1364 41.805 59.3069 41.6881 59.5277 41.6638C59.7506 41.6417 60.0116 41.7167 60.3106 41.8888Z" fill="black"/>
<path fill-rule="evenodd" clip-rule="evenodd" d="M63.3498 45.7273C63.821 46.8104 64.1272 47.5114 64.2685 47.8302L63.5319 47.405L62.787 45.59L62.4344 45.3865L62.4294 46.7696L61.7656 46.3858L61.7756 42.7872L62.6876 43.3134C63.1147 43.5593 63.4298 43.8307 63.6328 44.1274C63.837 44.423 63.9391 44.7522 63.9391 45.1151C63.938 45.3258 63.8856 45.4841 63.7818 45.59C63.6814 45.697 63.5374 45.7427 63.3498 45.7273ZM63.1147 45.0407C63.2152 45.0164 63.2659 44.9188 63.267 44.7478C63.2681 44.5769 63.2174 44.4257 63.1147 44.2945C63.0121 44.1632 62.8543 44.0364 62.6413 43.9139L62.4377 43.7965L62.436 44.766L62.6496 44.8901C62.8604 45.0114 63.0154 45.0616 63.1147 45.0407Z" fill="black"/>
<path d="M83.5663 76.3555L83.5514 81.6599L83.0416 81.3653L83.0515 77.5848C83.0526 77.2704 83.062 76.977 83.0797 76.7046C83.0344 76.7311 82.9848 76.7565 82.9307 76.7807C82.8755 76.8039 82.6239 76.8949 82.1759 77.0537L81.8994 76.4813L83.1244 76.1007L83.5663 76.3555Z" fill="black"/>
<path d="M66.4766 45.4989L66.4733 46.126L65.3344 45.4675L65.3328 46.2584L66.3955 46.8705L66.3922 47.4943L65.3311 46.8804L65.3278 47.8086L66.4667 48.4655L66.465 49.0991L64.6624 48.0568L64.6723 44.4583L66.4766 45.4989Z" fill="black"/>
<path fill-rule="evenodd" clip-rule="evenodd" d="M69.3023 47.5968C69.5848 48.0711 69.7255 48.5857 69.7244 49.1405C69.7222 49.7328 69.5743 50.1018 69.2808 50.2474C68.9861 50.393 68.5612 50.3064 68.0062 49.9876L67.1189 49.4747L67.1288 45.8762L68.1138 46.4437C68.6247 46.7382 69.0209 47.1226 69.3023 47.5968ZM68.0707 49.392C68.7108 49.7615 69.0319 49.5514 69.0341 48.7616C69.0363 47.9906 68.7406 47.4336 68.1469 47.0906L67.7926 46.8854L67.786 49.2265L68.0707 49.392Z" fill="black"/>
<path d="M71.0421 48.1346L71.0321 51.7331L70.3667 51.3493L70.3783 47.7507L71.0421 48.1346Z" fill="black"/>
<path d="M73.8911 49.7775L73.8894 50.4145L73.0386 49.9231L73.0303 52.8863L72.3648 52.5025L72.3731 49.5393L71.5239 49.0495L71.5256 48.4125L73.8911 49.7775Z" fill="black"/>
<path d="M76.8424 51.4287C77.1458 51.6041 77.451 51.8655 77.7578 52.2129L77.5426 52.7093C77.4256 52.5769 77.3075 52.4528 77.1883 52.337C77.0714 52.2212 76.9555 52.1302 76.8407 52.064C76.5913 51.9206 76.3971 51.9168 76.258 52.0524C76.1201 52.1892 76.0506 52.4506 76.0495 52.8367C76.0473 53.6386 76.3088 54.1912 76.8341 54.4945C77.0526 54.6213 77.3191 54.7112 77.6336 54.7642L77.632 55.4045C77.3737 55.3802 77.0862 55.2765 76.7695 55.0934C76.316 54.832 75.965 54.468 75.725 54.0114C75.4844 53.5536 75.3653 53.0286 75.3675 52.4363C75.3686 52.0624 75.4282 51.7684 75.5462 51.5544C75.6665 51.3438 75.8376 51.2268 76.0594 51.2037C76.2823 51.1805 76.5433 51.2555 76.8424 51.4287Z" fill="black"/>
<path fill-rule="evenodd" clip-rule="evenodd" d="M79.8303 53.1924L80.9311 57.4461L80.2144 57.0325L79.9909 56.0431L78.8487 55.3846L78.6186 56.111L77.9019 55.6973L79.0192 52.7242L79.8303 53.1924ZM79.0176 54.8403L79.8336 55.3118C79.6262 54.4173 79.5092 53.911 79.4827 53.793C79.4573 53.6761 79.4386 53.5845 79.4264 53.5183C79.3779 53.6992 79.2416 54.1399 79.0176 54.8403Z" fill="black"/>
<path fill-rule="evenodd" clip-rule="evenodd" d="M86.4053 57.466C86.6867 57.9403 86.8263 58.4543 86.8241 59.008C86.823 59.6003 86.6751 59.9693 86.3805 60.1148C86.0858 60.2604 85.6621 60.1744 85.1092 59.8567L84.2219 59.3439L84.2319 55.7453L85.2135 56.3111C85.7266 56.6067 86.1239 56.9917 86.4053 57.466ZM85.1704 59.2595C85.8127 59.6301 86.1344 59.4205 86.1355 58.6308C86.1388 57.8598 85.8425 57.3022 85.2466 56.9581L84.8956 56.7545L84.889 59.0957L85.1704 59.2595Z" fill="black"/>
<path d="M39.7431 79.7737L39.7348 82.6079L39.2382 82.3216L38.0315 79.3634L38.0166 79.3551L38.0249 79.4841C38.0392 79.7356 38.0464 79.9601 38.0464 80.1575L38.0431 81.6317L37.6772 81.4216L37.6855 78.5858L38.1738 78.867L39.3789 81.8154L39.3889 81.8203C39.3878 81.7905 39.3839 81.6802 39.3773 81.4894C39.3695 81.2975 39.3662 81.1491 39.3673 81.0443L39.3723 79.5586L39.7431 79.7737Z" fill="black"/>
<path d="M46.1227 83.455L46.1144 86.2891L45.7254 86.0658L45.7304 84.6628C45.7304 84.5216 45.7337 84.3396 45.7403 84.1168C45.7486 83.8951 45.7519 83.7594 45.7585 83.7164L45.7436 83.7098L44.9954 85.6439L44.6412 85.4404L43.931 82.6591L43.9178 82.6509C43.9355 83.0149 43.9437 83.3496 43.9426 83.6552L43.9393 85.035L43.5735 84.8232L43.5818 81.9891L44.1495 82.3167L44.8282 84.9672L44.8398 84.9738L45.5516 83.1257L46.1227 83.455Z" fill="black"/>
<path d="M48.6188 84.8961V85.2882L47.624 84.7157L47.6223 85.4867L48.5526 86.0228V86.4099L47.6223 85.8722L47.619 86.764L48.6122 87.3381L48.6105 87.7302L47.2151 86.9261L47.2234 84.0903L48.6188 84.8961Z" fill="black"/>
<path d="M50.0111 56.9912L50.0094 57.5454L48.1621 56.4799L48.0412 58.0054C48.2818 58.0892 48.5224 58.2006 48.763 58.3396C49.2496 58.6208 49.632 58.9793 49.9101 59.415C50.1882 59.854 50.3267 60.3139 50.3256 60.7949C50.3245 61.3453 50.1711 61.6883 49.8654 61.824C49.5586 61.9607 49.1387 61.8747 48.6057 61.5659C48.0859 61.2658 47.6892 60.9416 47.4155 60.593L47.4172 60.0139C47.564 60.207 47.7466 60.3972 47.9651 60.5847C48.1847 60.7745 48.4005 60.93 48.6123 61.0513C48.9831 61.2642 49.2717 61.3298 49.4781 61.2482C49.6844 61.1666 49.7882 60.9355 49.7893 60.555C49.7904 59.8159 49.3964 59.2187 48.6074 58.7631C48.4076 58.6462 48.14 58.5265 47.8045 58.4041L47.5314 58.0467L47.7135 55.6659L50.0111 56.9912Z" fill="black"/>
<path d="M74.4885 71.1173L74.4736 76.42L73.9621 76.1255L73.972 72.3466C73.9742 72.0323 73.983 71.7383 73.9985 71.4648C73.9554 71.4924 73.9058 71.5172 73.8495 71.5392C73.7943 71.5635 73.5433 71.6551 73.0963 71.8139L72.8215 71.2414L74.0448 70.8609L74.4885 71.1173Z" fill="black"/>
<path fill-rule="evenodd" clip-rule="evenodd" d="M82.911 57.0143C83.38 58.0975 83.6857 58.7984 83.8281 59.1172L83.0914 58.692L82.3482 56.877L81.9939 56.6735L81.989 58.0567L81.3252 57.6728L81.3351 54.0743L82.2489 54.6004C82.6737 54.8453 82.9883 55.1166 83.1924 55.4144C83.3944 55.7078 83.4953 56.0365 83.4953 56.4005C83.4942 56.6112 83.4435 56.77 83.3431 56.877C83.2393 56.9829 83.0953 57.0287 82.911 57.0143ZM82.6743 56.3277C82.7747 56.3023 82.8249 56.2042 82.8249 56.0332C82.8249 55.8622 82.7747 55.7117 82.6743 55.5815C82.5717 55.4503 82.4128 55.3229 82.1976 55.1993L81.9973 55.0835L81.9956 56.0531L82.2091 56.1772C82.4188 56.2985 82.5739 56.3487 82.6743 56.3277Z" fill="black"/>
</g>
<path d="M94.4767 119.836L94.432 106.775L94.4403 93.7146L94.4585 67.5933L94.49 61.0629L94.5049 57.7986L94.5131 56.1673C94.5065 55.6477 94.3658 55.1282 94.1523 54.6451C93.9371 54.162 93.6424 53.7136 93.2849 53.3248C93.1028 53.1318 92.9053 52.9592 92.6923 52.807C92.4804 52.6663 92.2321 52.5323 92.0003 52.395L89.1747 50.7554L83.5234 47.4794L72.2207 40.9226L60.9446 34.3228L72.3018 40.782L83.6326 47.2875L89.2988 50.5419L92.1311 52.1683C92.3678 52.3073 92.6012 52.4297 92.8429 52.5886C93.0747 52.7529 93.2871 52.9371 93.4802 53.1412C93.8626 53.5515 94.1738 54.023 94.4039 54.5326C94.6323 55.0422 94.7863 55.5931 94.7946 56.1656L94.7962 57.7986L94.7929 61.0646L94.7879 67.5949L94.6588 93.7163L94.5943 106.775L94.4767 119.836Z" fill="white"/>
<defs>
<linearGradient id="paint0_linear_56_3562" x1="16.6391" y1="104.688" x2="84.8919" y2="20.0759" gradientUnits="userSpaceOnUse">
<stop stop-color="#4591F0"/>
<stop offset="1" stop-color="#4591F0" stop-opacity="0.4"/>
</linearGradient>
<linearGradient id="paint1_linear_56_3562" x1="-13.1807" y1="16.8075" x2="32.7873" y2="25.2577" gradientUnits="userSpaceOnUse">
<stop stop-color="#D7A866"/>
<stop offset="1" stop-color="#E7B19E"/>
</linearGradient>
<linearGradient id="paint2_linear_56_3562" x1="-12.503" y1="12.9535" x2="33.5244" y2="21.4145" gradientUnits="userSpaceOnUse">
<stop stop-color="#D7A866"/>
<stop offset="1" stop-color="#E7B19E"/>
</linearGradient>
<linearGradient id="paint3_linear_56_3562" x1="-11.8158" y1="9.23167" x2="34.2118" y2="17.6928" gradientUnits="userSpaceOnUse">
<stop stop-color="#D7A866"/>
<stop offset="1" stop-color="#E7B19E"/>
</linearGradient>
<linearGradient id="paint4_linear_56_3562" x1="-13.371" y1="17.9253" x2="32.5437" y2="26.3657" gradientUnits="userSpaceOnUse">
<stop stop-color="#D7A866"/>
<stop offset="1" stop-color="#E7B19E"/>
</linearGradient>
<linearGradient id="paint5_linear_56_3562" x1="-11.9191" y1="6.52906" x2="35.2199" y2="15.1944" gradientUnits="userSpaceOnUse">
<stop stop-color="#D7A866"/>
<stop offset="1" stop-color="#E7B19E"/>
</linearGradient>
<linearGradient id="paint6_linear_56_3562" x1="-11.8967" y1="9.51313" x2="34.1319" y2="17.9745" gradientUnits="userSpaceOnUse">
<stop stop-color="#D7A866"/>
<stop offset="1" stop-color="#E7B19E"/>
</linearGradient>
<linearGradient id="paint7_linear_56_3562" x1="-14.9415" y1="21.2169" x2="32.1977" y2="29.8823" gradientUnits="userSpaceOnUse">
<stop stop-color="#D7A866"/>
<stop offset="1" stop-color="#E7B19E"/>
</linearGradient>
<linearGradient id="paint8_linear_56_3562" x1="-13.3802" y1="17.4231" x2="32.6472" y2="25.8842" gradientUnits="userSpaceOnUse">
<stop stop-color="#D7A866"/>
<stop offset="1" stop-color="#E7B19E"/>
</linearGradient>
<linearGradient id="paint9_linear_56_3562" x1="-11.4067" y1="7.26021" x2="34.5078" y2="15.7007" gradientUnits="userSpaceOnUse">
<stop stop-color="#D7A866"/>
<stop offset="1" stop-color="#E7B19E"/>
</linearGradient>
<linearGradient id="paint10_linear_56_3562" x1="-12.6934" y1="13.7013" x2="33.3342" y2="22.1625" gradientUnits="userSpaceOnUse">
<stop stop-color="#D7A866"/>
<stop offset="1" stop-color="#E7B19E"/>
</linearGradient>
<linearGradient id="paint11_linear_56_3562" x1="-12.0782" y1="10.6157" x2="33.8897" y2="19.0658" gradientUnits="userSpaceOnUse">
<stop stop-color="#D7A866"/>
<stop offset="1" stop-color="#E7B19E"/>
</linearGradient>
</defs>
</svg>
