<svg width="145" height="27" viewBox="0 0 145 27" fill="none" xmlns="http://www.w3.org/2000/svg">
<g clip-path="url(#clip0_51_892)">
<path d="M31.5776 7.34961C33.4601 7.34961 35.0982 7.77498 36.4907 8.62598C37.8831 9.45117 38.9662 10.6118 39.7397 12.1074C40.5133 13.5773 40.8999 15.2922 40.8999 17.252V18.915H26.936C26.9739 19.8797 27.2487 20.712 27.7583 21.4131H22.5249C22.1657 20.2965 21.9849 19.0642 21.9849 17.7158V17.252C21.9849 15.2406 22.3848 13.5001 23.1841 12.0303C23.9835 10.5346 25.1052 9.38633 26.5493 8.58691C27.9933 7.76181 29.6695 7.34964 31.5776 7.34961ZM38.0366 21.4131H35.7651C35.9717 21.1212 36.1503 20.8177 36.2974 20.501L38.0366 21.4131ZM56.7651 12.1455H54.3667C53.1291 12.1456 52.1104 12.481 51.311 13.1514C50.5116 13.7961 50.1118 14.8022 50.1118 16.1689V21.4131H45.2378V7.89062H50.0347V10.0576H50.731C51.0146 9.28401 51.4789 8.7165 52.1235 8.35547C52.7939 7.99451 53.5673 7.81354 54.4438 7.81348H56.7651V12.1455ZM69.0239 7.34961C70.9321 7.34966 72.6471 7.73618 74.1685 8.50977C75.6897 9.28333 76.8884 10.4053 77.7651 11.875C78.6419 13.3449 79.0806 15.1118 79.0806 17.1748V17.793C79.0806 19.1229 78.8971 20.3296 78.5327 21.4131H73.1226C73.8446 20.4717 74.2065 19.2272 74.2065 17.6777V17.291C74.2065 15.4859 73.7167 14.1055 72.7368 13.1514C71.7828 12.1717 70.5451 11.6817 69.0239 11.6816C67.5283 11.6816 66.29 12.1715 65.3101 13.1514C64.3301 14.1055 63.8403 15.4859 63.8403 17.291V17.6777C63.8404 19.2271 64.2023 20.4717 64.9243 21.4131H59.5142C59.1498 20.3296 58.9663 19.1229 58.9663 17.793V17.1748C58.9663 15.1118 59.405 13.3449 60.2817 11.875C61.1585 10.4052 62.358 9.28336 63.8794 8.50977C65.4008 7.73627 67.1158 7.34961 69.0239 7.34961ZM100.445 4.6416H88.5308V11.1787H99.5161V15.8203H88.5308V21.4131H83.4253V0H100.445V4.6416ZM112.756 7.34961C114.639 7.34967 116.276 7.77505 117.668 8.62598C119.061 9.45118 120.144 10.6117 120.917 12.1074C121.691 13.5773 122.079 15.2921 122.079 17.252V18.915H108.114C108.152 19.8797 108.427 20.712 108.936 21.4131H103.703C103.343 20.2965 103.163 19.0641 103.163 17.7158V17.252C103.163 15.2407 103.563 13.5001 104.362 12.0303C105.161 10.5346 106.283 9.38633 107.727 8.58691C109.171 7.76171 110.848 7.34961 112.756 7.34961ZM119.215 21.4131H116.943C117.15 21.1211 117.328 20.8178 117.475 20.501L119.215 21.4131ZM135.081 7.34961C136.963 7.34961 138.601 7.77498 139.994 8.62598C141.386 9.45117 142.469 10.6118 143.243 12.1074C144.016 13.5773 144.403 15.2921 144.403 17.252V18.915H130.439C130.477 19.8797 130.752 20.712 131.261 21.4131H126.028C125.669 20.2965 125.488 19.0641 125.488 17.7158V17.252C125.488 15.2406 125.888 13.5001 126.687 12.0303C127.486 10.5346 128.608 9.38633 130.052 8.58691C131.496 7.7618 133.172 7.34965 135.081 7.34961ZM141.541 21.4131H139.268C139.475 21.1212 139.653 20.8177 139.8 20.501L141.541 21.4131ZM31.5396 11.6045C30.2244 11.6045 29.1794 11.9399 28.4058 12.6104C27.6323 13.2808 27.1556 14.1705 26.9751 15.2793H35.9487C35.8456 14.1705 35.3945 13.2808 34.5952 12.6104C33.8217 11.9399 32.803 11.6046 31.5396 11.6045ZM112.717 11.6045C111.402 11.6045 110.358 11.9399 109.584 12.6104C108.811 13.2808 108.333 14.1704 108.153 15.2793H117.127C117.024 14.1704 116.572 13.2808 115.773 12.6104C114.999 11.9399 113.981 11.6045 112.717 11.6045ZM135.042 11.6045C133.727 11.6045 132.682 11.9399 131.909 12.6104C131.135 13.2808 130.659 14.1706 130.478 15.2793H139.452C139.349 14.1705 138.897 13.2808 138.098 12.6104C137.325 11.9399 136.306 11.6045 135.042 11.6045Z" fill="#4591F0"/>
<path d="M0 27.7679V21.2694L13.3838 5.87423V5.25533H0.386814V0.690918H18.7218V7.1894L5.33804 22.5846V23.2035H145V27.7679H0Z" fill="#FAFBFB"/>
</g>
<defs>
<clipPath id="clip0_51_892">
<rect width="145" height="27" fill="white"/>
</clipPath>
</defs>
</svg>
