<svg width="32" height="18" viewBox="0 0 32 18" fill="none" xmlns="http://www.w3.org/2000/svg">
<path d="M31.1737 8.52789L23.1453 0.499492C22.987 0.341134 22.799 0.215516 22.592 0.129813C22.3851 0.0441103 22.1634 -3.92185e-07 21.9394 -4.03643e-07C21.7155 -4.15101e-07 21.4937 0.0441102 21.2868 0.129813C21.0799 0.215516 20.8919 0.341134 20.7336 0.499492C20.5752 0.657851 20.4496 0.845849 20.3639 1.05275C20.2782 1.25966 20.2341 1.48142 20.2341 1.70537C20.2341 1.92932 20.2782 2.15108 20.3639 2.35799C20.4496 2.56489 20.5752 2.75289 20.7336 2.91125L24.6446 6.82226L1.70566 6.82226C1.2533 6.82226 0.819462 7.00196 0.499593 7.32183C0.179725 7.64169 2.82572e-05 8.07552 2.82375e-05 8.52789C2.82177e-05 8.98025 0.179725 9.41408 0.499593 9.73395C0.819461 10.0538 1.2533 10.2335 1.70566 10.2335L24.6446 10.2335L20.7336 14.1445C20.5746 14.3026 20.4485 14.4904 20.3624 14.6974C20.2763 14.9043 20.232 15.1263 20.232 15.3504C20.232 15.5745 20.2763 15.7965 20.3624 16.0034C20.4485 16.2104 20.5746 16.3983 20.7336 16.5563C21.0534 16.876 21.4872 17.0557 21.9394 17.0557C22.3917 17.0557 22.8255 16.876 23.1453 16.5563L31.1737 8.52789Z" fill="white"/>
</svg>
