<svg width="32" height="18" viewBox="0 0 32 18" fill="none" xmlns="http://www.w3.org/2000/svg">
<path d="M3.72766e-07 8.52789L8.0284 0.499492C8.18675 0.341134 8.37475 0.215516 8.58166 0.129813C8.78856 0.0441103 9.01032 -3.92185e-07 9.23428 -4.03643e-07C9.45823 -4.15101e-07 9.67999 0.0441102 9.88689 0.129813C10.0938 0.215516 10.2818 0.341134 10.4402 0.499492C10.5985 0.657851 10.7241 0.845849 10.8098 1.05275C10.8955 1.25966 10.9396 1.48142 10.9396 1.70537C10.9396 1.92932 10.8955 2.15108 10.8098 2.35799C10.7241 2.56489 10.5985 2.75289 10.4402 2.91125L6.52915 6.82226L29.468 6.82226C29.9204 6.82226 30.3542 7.00196 30.6741 7.32183C30.994 7.64169 31.1737 8.07552 31.1737 8.52789C31.1737 8.98025 30.994 9.41408 30.6741 9.73395C30.3542 10.0538 29.9204 10.2335 29.468 10.2335L6.52915 10.2335L10.4402 14.1445C10.5991 14.3026 10.7252 14.4904 10.8113 14.6974C10.8974 14.9043 10.9417 15.1263 10.9417 15.3504C10.9417 15.5745 10.8974 15.7965 10.8113 16.0034C10.7252 16.2104 10.5991 16.3983 10.4402 16.5563C10.1203 16.876 9.68655 17.0557 9.23428 17.0557C8.78201 17.0557 8.34825 16.876 8.0284 16.5563L3.72766e-07 8.52789Z" fill="white"/>
</svg>
