<svg width="23" height="18" viewBox="0 0 23 18" fill="none" xmlns="http://www.w3.org/2000/svg">
<path d="M21.336 0V3.808H19.152C17.4347 3.808 16.576 4.66667 16.576 6.384V8.176H17.528C19.0213 8.176 20.2533 8.624 21.224 9.52C22.232 10.416 22.736 11.5547 22.736 12.936C22.736 14.4293 22.232 15.6427 21.224 16.576C20.2533 17.5093 19.0213 17.976 17.528 17.976C15.9973 17.976 14.7467 17.5093 13.776 16.576C12.8053 15.6053 12.32 14.3173 12.32 12.712V6.272C12.32 2.09067 14.4107 0 18.592 0H21.336ZM9.016 0V3.808H6.832C5.11467 3.808 4.256 4.66667 4.256 6.384V8.176H5.208C6.70133 8.176 7.93333 8.624 8.904 9.52C9.912 10.416 10.416 11.5547 10.416 12.936C10.416 14.4293 9.912 15.6427 8.904 16.576C7.93333 17.5093 6.70133 17.976 5.208 17.976C3.67733 17.976 2.42667 17.5093 1.456 16.576C0.485333 15.6053 0 14.3173 0 12.712V6.272C0 2.09067 2.09067 0 6.272 0H9.016Z" fill="#4591F0"/>
</svg>
