<svg width="23" height="18" viewBox="0 0 23 18" fill="none" xmlns="http://www.w3.org/2000/svg">
<path d="M1.39996 17.976V14.168H3.58396C5.30129 14.168 6.15996 13.3093 6.15996 11.592V9.79995H5.20796C3.71463 9.79995 2.48263 9.35195 1.51196 8.45595C0.503962 7.55995 -3.8147e-05 6.42128 -3.8147e-05 5.03995C-3.8147e-05 3.54662 0.503962 2.33328 1.51196 1.39995C2.48263 0.466616 3.71463 -4.95911e-05 5.20796 -4.95911e-05C6.73863 -4.95911e-05 7.98929 0.466616 8.95996 1.39995C9.93063 2.37062 10.416 3.65862 10.416 5.26395V11.704C10.416 15.8853 8.32529 17.976 4.14396 17.976H1.39996ZM13.72 17.976V14.168H15.904C17.6213 14.168 18.48 13.3093 18.48 11.592V9.79995H17.528C16.0346 9.79995 14.8026 9.35195 13.832 8.45595C12.824 7.55995 12.32 6.42128 12.32 5.03995C12.32 3.54662 12.824 2.33328 13.832 1.39995C14.8026 0.466616 16.0346 -4.95911e-05 17.528 -4.95911e-05C19.0586 -4.95911e-05 20.3093 0.466616 21.28 1.39995C22.2506 2.37062 22.736 3.65862 22.736 5.26395V11.704C22.736 15.8853 20.6453 17.976 16.464 17.976H13.72Z" fill="#4591F0"/>
</svg>
